<?xml version="1.0" encoding="UTF-8" standalone="no"?>
<!-- Created with Inkscape (http://www.inkscape.org/) -->

<svg
   width="1140.8796"
   height="1028.0837"
   viewBox="0 0 301.85773 272.01382"
   version="1.1"
   id="svg1"
   inkscape:version="1.3.2 (091e20e, 2023-11-25, custom)"
   sodipodi:docname="wireconf-final.svg"
   inkscape:export-filename="wireconf-export.svg"
   inkscape:export-xdpi="96"
   inkscape:export-ydpi="96"
   xmlns:inkscape="http://www.inkscape.org/namespaces/inkscape"
   xmlns:sodipodi="http://sodipodi.sourceforge.net/DTD/sodipodi-0.dtd"
   xmlns:xlink="http://www.w3.org/1999/xlink"
   xmlns="http://www.w3.org/2000/svg"
   xmlns:svg="http://www.w3.org/2000/svg">
  <sodipodi:namedview
     id="namedview1"
     pagecolor="#505050"
     bordercolor="#eeeeee"
     borderopacity="1"
     inkscape:showpageshadow="0"
     inkscape:pageopacity="0"
     inkscape:pagecheckerboard="0"
     inkscape:deskcolor="#505050"
     inkscape:document-units="mm"
     inkscape:zoom="0.72252762"
     inkscape:cx="98.26614"
     inkscape:cy="777.13292"
     inkscape:window-width="2560"
     inkscape:window-height="1361"
     inkscape:window-x="-9"
     inkscape:window-y="-9"
     inkscape:window-maximized="1"
     inkscape:current-layer="layer1" />
  <defs
     id="defs1">
    <linearGradient
       id="linearGradient3"
       inkscape:collect="always">
      <stop
         style="stop-color:#1b3966;stop-opacity:1;"
         offset="0"
         id="stop3" />
      <stop
         style="stop-color:#21496e;stop-opacity:1;"
         offset="1"
         id="stop4" />
    </linearGradient>
    <linearGradient
       id="linearGradient1"
       inkscape:collect="always">
      <stop
         style="stop-color:#0b8b64;stop-opacity:1;"
         offset="0"
         id="stop1" />
      <stop
         style="stop-color:#22c07b;stop-opacity:1;"
         offset="1"
         id="stop2" />
    </linearGradient>
    <linearGradient
       inkscape:collect="always"
       xlink:href="#linearGradient1"
       id="linearGradient2"
       x1="-40.555019"
       y1="140.71123"
       x2="232.49034"
       y2="140.71123"
       gradientUnits="userSpaceOnUse" />
    <linearGradient
       inkscape:collect="always"
       xlink:href="#linearGradient3"
       id="linearGradient4"
       x1="-54.23959"
       y1="140.76941"
       x2="247.61815"
       y2="140.76941"
       gradientUnits="userSpaceOnUse" />
  </defs>
  <g
     inkscape:label="Layer 1"
     inkscape:groupmode="layer"
     id="layer1"
     transform="translate(54.23959,-4.7625008)">
    <path
       id="path190"
       style="fill:url(#linearGradient2);stroke-width:0.920182"
       d="m 195.26353,7.3814616 c -6.93454,0 -8.41646,0.2730403 -12.57907,2.3171712 -5.37217,2.6380892 -11.16042,8.6007352 -14.03171,14.4544152 -1.47752,3.012276 -2.0176,5.816373 -2.34197,12.167732 l -0.42116,8.253243 -6.61976,1.093474 c -15.12646,2.49918 -27.41242,11.830461 -34.2687,26.027352 -3.73257,7.728812 -5.16576,13.879256 -3.23443,13.879256 0.65115,0 2.76377,1.162181 4.6948,2.582271 1.93103,1.42009 3.60614,2.443918 3.72225,2.275313 0.11611,-0.168594 0.65021,-2.507274 1.18701,-5.197098 2.38045,-11.928078 9.61125,-21.546953 19.83962,-26.392188 l 5.57744,-2.642216 32.47657,-0.242879 32.47708,-0.242879 V 67.18453 c 0,13.514245 -1.0843,18.113433 -5.4808,23.249743 -3.79068,4.428563 -7.11581,6.50063 -16.03261,9.990607 -7.87325,3.08154 -12.71157,5.6745 -18.20354,9.75651 -6.98457,5.19136 -15.04678,13.85768 -20.35225,21.87722 l -5.29838,8.00881 v 13.43536 c 0,7.38956 0.14883,13.28081 0.33073,13.09119 0.18189,-0.18962 1.71715,-4.06823 3.41167,-8.61912 5.68831,-15.27641 10.49023,-23.03571 20.22668,-32.68379 6.99941,-6.9359 14.94894,-11.97833 24.07243,-15.26935 9.02863,-3.25681 13.69436,-6.07356 18.16788,-10.968325 4.57756,-5.00855 7.93532,-11.541413 9.10694,-17.719331 1.13485,-5.984031 1.03696,-29.93143 -0.13281,-32.498792 -0.60817,-1.334777 -2.1434,-2.44482 -4.34392,-3.14141 l -3.40341,-1.077454 -0.42375,-8.688358 C 222.88733,25.687891 221.13783,21.371901 214.98171,15.194421 208.86217,9.0536765 204.64252,7.3814616 195.26353,7.3814616 Z m 0.7705,9.5337854 c 2.70654,0.02314 8.98279,2.85313 11.54348,5.20485 3.72904,3.424713 5.8723,9.43686 5.8813,16.497184 l 0.008,6.412529 h -18.20354 -18.20354 v -7.059518 c 0,-8.15408 1.00825,-11.106575 5.28082,-15.459521 3.03741,-3.094577 9.25052,-5.633514 13.69322,-5.595524 z M 14.773775,38.422461 c -4.146666,0.0073 -7.6059056,0.43338 -8.8087644,1.275891 -2.1135979,1.480425 -2.3740725,4.198957 -0.6397543,6.675045 1.033779,1.475951 2.3739814,1.782306 9.7224037,2.220536 14.586316,0.869871 24.150462,4.664971 32.629533,12.948047 6.976243,6.814965 10.701587,14.393379 13.112895,26.675891 l 0.437699,2.230355 4.607988,-2.643766 4.608504,-2.643767 -0.552421,-3.691247 C 68.505159,72.200775 61.556917,60.092819 53.297005,52.551314 47.398981,47.166246 35.947961,41.397319 27.707869,39.660111 23.754593,38.826666 18.920461,38.41517 14.773775,38.422461 Z M 195.23046,65.820789 c -1.41617,-0.129742 -2.84421,0.381176 -4.3062,1.531172 -2.77014,2.179011 -3.23313,5.188042 -1.341,8.718331 0.8919,1.664086 1.54306,4.555658 1.54306,6.853329 0,2.186069 0.44659,4.421549 0.9927,4.967655 1.21985,1.219845 3.55223,1.275354 5.68131,0.135909 1.29864,-0.695009 1.60042,-1.757397 1.60042,-5.633765 0,-2.919595 0.47248,-5.402014 1.21491,-6.383589 1.88984,-2.498585 1.48977,-5.234372 -1.15135,-7.875489 -1.41343,-1.413427 -2.81768,-2.183811 -4.23385,-2.313553 z m -33.67185,0.808736 c -3.83866,0.03219 -4.03722,1.658091 -3.40237,10.339937 0.51768,7.079579 0.9865,8.894639 3.65559,14.153141 1.7161,3.380967 4.61374,7.462986 6.59288,9.287287 3.9758,3.6648 5.0835,3.67442 9.46505,0.0827 l 2.8789,-2.360059 -4.37286,-4.62349 C 170.66831,87.474203 168.76969,83.030618 168.09,74.115373 l -0.5457,-7.15822 -4.10983,-0.259932 c -0.70515,-0.04453 -1.32747,-0.07229 -1.87586,-0.0677 z m -63.899455,28.536759 -19.036564,11.298536 -19.303214,10.83706 0.26665,22.1356 -0.26665,22.13509 19.303214,10.83706 19.036564,11.29854 19.036565,-11.29854 19.30373,-10.83706 -0.26717,-22.13509 0.26717,-22.1356 -19.30373,-10.83706 z m 0,10.616406 14.471465,8.58914 14.67456,8.23826 -0.20257,16.82739 0.20257,16.82688 -14.67456,8.23826 -14.471465,8.58914 -14.471468,-8.58914 -14.674556,-8.23826 0.203088,-16.82688 -0.203088,-16.82739 14.674556,-8.23826 z m -62.289221,9.13278 c -0.40146,0 -1.427932,3.23159 -2.54248,6.5505 -4.817516,14.34567 -16.085901,30.29903 -26.0387211,38.22661 -2.6019274,2.07249 -9.6813723,6.16698 -15.7318563,9.09918 -17.9443316,8.69626 -23.3009746,16.13139 -23.3277746,32.37891 l -0.01034,5.96139 -2.916101,0.54725 c -4.978015,0.93389 -5.357812,2.24981 -5.357812,18.55391 0,16.15835 1.09205,22.13965 5.377966,29.45298 4.996655,8.52615 15.083112,15.81324 24.409363,17.63458 h 5.17e-4 c 21.514968,4.20175 41.762773,-10.43452 44.52338,-32.18356 l 0.577226,-4.54546 5.170744,-1.8433 c 13.337816,-4.754 24.530834,-16.01851 29.066959,-29.25248 2.975957,-8.6823 3.055484,-8.28791 -2.334741,-11.64321 l -4.837948,-3.01119 -0.95653,5.07979 c -2.820927,14.9807 -14.521289,27.12551 -29.123804,30.22968 -2.565337,0.54535 -5.214703,1.62562 -5.888013,2.40089 -0.723449,0.83301 -1.432007,4.00146 -1.731677,7.74578 -0.977989,12.21954 -5.833552,20.20434 -15.0424926,24.73596 -3.4420965,1.69381 -5.3343879,2.0252 -11.5626017,2.0252 -6.4850535,0 -8.0578887,-0.29983 -12.1754847,-2.32182 -5.799594,-2.84797 -10.786132,-8.33522 -13.033829,-14.3428 -1.406819,-3.76003 -1.682585,-6.45741 -1.682585,-16.46359 V 217.96396 H 0.81648763 c 29.51173037,0 30.67462637,-0.06 32.26986537,-1.6552 0.910169,-0.91017 1.655196,-2.55864 1.655196,-3.66334 0,-2.52136 -3.569121,-5.43843 -6.653858,-5.43843 h -2.292883 l -0.289905,-8.06721 c -0.30197,-8.40032 -2.21949,-14.2914 -6.240446,-19.17505 l -1.651579,-2.00608 -2.926953,1.80919 c -5.0438247,3.11727 -5.1649363,3.5923 -2.237589,8.77931 2.192478,3.88485 2.692421,5.78889 3.058211,11.652 l 0.437183,7.00784 -4.046782,0.13126 c -6.3448434,0.20546 -32.95205,-0.27075 -33.49718,-0.59945 -0.937169,-0.5651 0.284854,-13.2009 1.515153,-15.66674 3.013747,-6.04032 5.170071,-7.82631 15.3654704,-12.72739 15.5730146,-7.48618 24.6383966,-15.20324 34.4159876,-29.2964 l 5.04517,-7.27139 1.144633,-14.03222 c 0.596609,-7.31567 -0.114788,-12.82919 -0.516248,-12.82919 z m 92.288936,74.95563 c -2.48238,0.59438 -9.70926,4.00021 -8.15764,6.01358 -0.003,2.29922 4.40523,12.77165 7.6476,18.97921 6.44462,12.33834 21.55479,23.55458 35.84484,26.60768 2.95806,0.632 9.00858,1.18626 13.44569,1.23196 7.03028,0.0724 8.28028,-0.12938 9.7224,-1.57148 2.03874,-2.03875 2.10858,-4.24084 0.20671,-6.50658 -1.2509,-1.49021 -2.85607,-1.82652 -11.79101,-2.4722 -8.03945,-0.58096 -11.52156,-1.22865 -15.63471,-2.90835 -14.54377,-5.93926 -22.86143,-16.73637 -27.32701,-30.96762 -1.39353,-4.44099 -3.17284,-8.59392 -3.95687,-8.4062 z M -3.2809367,228.36797 c -1.7695582,0.13765 -3.5080056,0.91833 -4.6979044,2.30167 -2.2616179,2.62929 -2.4525679,4.62995 -0.7555095,7.91166 0.6631394,1.28239 1.433794,4.32964 1.7130737,6.7722 0.2792598,2.44256 0.947011,4.72042 1.4836304,5.06171 1.1909188,0.75739 3.2899419,0.8172 5.0451701,0.14366 0.96136904,-0.36892 1.30896403,-1.64485 1.30896403,-4.80643 0,-2.5036 0.50829367,-4.97599 1.21491297,-5.91023 1.8542581,-2.45155 1.6110335,-8.07159 -0.4289144,-9.91774 -1.31340872,-1.18861 -3.1138547,-1.69415 -4.8834229,-1.5565 z" />
    <path
       id="path1-7-2-1-2"
       style="fill:url(#linearGradient4);stroke-width:1.53057"
       d="M 97.02855,4.762501 A 20.221752,20.221752 0 0 0 76.80701,24.984038 20.221752,20.221752 0 0 0 91.1874,44.333594 V 72.506067 C 74.05178,82.644298 56.63254,92.275036 39.18786,101.86807 L 12.02273,85.118324 A 20.221752,20.221752 0 0 0 12.56753,80.685906 20.221752,20.221752 0 0 0 -7.65401,60.464369 20.221752,20.221752 0 0 0 -27.87552,80.685906 20.221752,20.221752 0 0 0 -7.65401,100.90744 20.221752,20.221752 0 0 0 6.86823,94.687524 l 28.13542,17.347716 c 0.19556,21.06766 -0.2464,42.12662 -0.68341,63.19022 19.22203,10.64697 38.01652,22.01041 56.80753,33.38826 v 28.67535 a 20.221752,20.221752 0 0 0 -14.15797,19.26575 20.221752,20.221752 0 0 0 20.22153,20.2215 20.221752,20.221752 0 0 0 20.22154,-20.2215 20.221752,20.221752 0 0 0 -15.43452,-19.60101 V 207.4629 c 17.2053,-10.15598 34.69141,-19.80917 52.19785,-29.43451 l 27.95814,17.2397 a 20.221752,20.221752 0 0 0 -0.60443,4.70642 20.221752,20.221752 0 0 0 20.2215,20.22154 20.221752,20.221752 0 0 0 20.22154,-20.22154 20.221752,20.221752 0 0 0 -20.22154,-20.2215 20.221752,20.221752 0 0 0 -14.33042,6.02648 l -30.1711,-18.60331 c -0.165,-20.6377 0.26667,-41.26667 0.69469,-61.90079 C 139.02882,94.798997 120.52785,83.627627 102.03636,72.431928 V 44.536673 A 20.221752,20.221752 0 0 0 117.25009,24.984038 20.221752,20.221752 0 0 0 97.02855,4.762501 Z m -0.43682,9.939925 A 10.227919,10.227919 0 0 1 106.82017,24.930859 10.227919,10.227919 0 0 1 96.59173,35.15926 10.227919,10.227919 0 0 1 86.36492,24.930859 10.227919,10.227919 0 0 1 96.59173,14.702426 Z M -8.0908,70.404294 A 10.227919,10.227919 0 0 1 2.13761,80.632727 10.227919,10.227919 0 0 1 -8.0908,90.861129 10.227919,10.227919 0 0 1 -18.31761,80.632727 10.227919,10.227919 0 0 1 -8.0908,70.404294 Z m 105.70763,12.355969 24.71203,14.957436 25.06332,14.359431 -0.59797,28.88008 0.0967,28.88488 -25.30994,13.92102 -24.96666,14.52708 -24.71197,-14.9574 -25.06495,-14.35943 0.5996,-28.88008 -0.0967,-28.88489 25.30994,-13.92102 z M -34.01805,119.87498 a 20.221752,20.221752 0 0 0 -20.22154,20.22154 20.221752,20.221752 0 0 0 20.22154,20.2215 20.221752,20.221752 0 0 0 19.47525,-14.85425 H 7.52743 l 7.62541,-11.10525 h -29.78269 a 20.221752,20.221752 0 0 0 -19.3882,-14.48354 z m 261.41467,0.4352 A 20.221752,20.221752 0 0 0 208.18891,134.3118 H 184.7567 l -7.62537,11.10521 h 30.68527 a 20.221752,20.221752 0 0 0 19.58002,15.33621 20.221752,20.221752 0 0 0 20.22153,-20.22153 20.221752,20.221752 0 0 0 -20.22153,-20.22151 z m -261.85149,9.50473 a 10.227919,10.227919 0 0 1 10.22843,10.2284 10.227919,10.227919 0 0 1 -10.22843,10.22843 10.227919,10.227919 0 0 1 -10.22681,-10.22843 10.227919,10.227919 0 0 1 10.22681,-10.2284 z m 261.4147,0.43516 a 10.227919,10.227919 0 0 1 10.2284,10.22844 10.227919,10.227919 0 0 1 -10.2284,10.22843 10.227919,10.227919 0 0 1 -10.22681,-10.22843 10.227919,10.227919 0 0 1 10.22681,-10.22844 z m -25.6452,59.44283 a 10.227919,10.227919 0 0 1 10.22843,10.22844 10.227919,10.227919 0 0 1 -10.22843,10.2284 10.227919,10.227919 0 0 1 -10.22681,-10.2284 10.227919,10.227919 0 0 1 10.22681,-10.22844 z M 96.75455,246.27321 a 10.227919,10.227919 0 0 1 10.2284,10.2284 10.227919,10.227919 0 0 1 -10.2284,10.22843 10.227919,10.227919 0 0 1 -10.22681,-10.22843 10.227919,10.227919 0 0 1 10.22681,-10.2284 z" />
  </g>
</svg>
